<svg width="41" height="32" viewBox="0 0 41 32" fill="none" xmlns="http://www.w3.org/2000/svg">
<path d="M8.75 6V22H4.75V5C4.75 3.375 6.0625 2 7.75 2H33.75C35.375 2 36.75 3.375 36.75 5V22H32.75V6H8.75ZM39.75 24C40.25 24 40.75 24.5 40.75 25V26C40.75 28.25 38.9375 30 36.75 30H4.75C2.5 30 0.75 28.25 0.75 26V25C0.75 24.5 1.1875 24 1.75 24H39.75ZM23.5625 17.9375C23.125 17.4375 23.125 16.625 23.5625 16.125L25.6875 14L23.5625 11.9375C23.125 11.4375 23.125 10.625 23.5625 10.125C24.0625 9.6875 24.875 9.6875 25.375 10.125L28.375 13.125C28.8125 13.625 28.8125 14.4375 28.375 14.9375L25.375 17.9375C25.125 18.1875 24.8125 18.25 24.5 18.25C24.125 18.25 23.8125 18.1875 23.5625 17.9375ZM17.875 10.125C18.3125 10.625 18.3125 11.4375 17.875 11.9375L15.75 14L17.875 16.125C18.3125 16.625 18.3125 17.4375 17.875 17.9375C17.625 18.1875 17.3125 18.25 17 18.25C16.625 18.25 16.3125 18.1875 16.0625 17.9375L13.0625 14.9375C12.625 14.4375 12.625 13.625 13.0625 13.125L16.0625 10.125C16.5625 9.6875 17.375 9.6875 17.875 10.125Z" fill="#00A3FF"/>
</svg>
