<svg width="41" height="33" viewBox="0 0 41 33" fill="none" xmlns="http://www.w3.org/2000/svg">
<path d="M20.25 0C20.5625 0 20.9375 0.125 21.25 0.3125L34 5.6875C34.6875 6 35.1875 6.625 35.1875 7.4375C35.5625 13.375 33.375 26.375 21.25 31.75C20.9375 31.9375 20.5625 32.0625 20.25 32C19.875 32.0625 19.5 31.9375 19.1875 31.75C7.0625 26.375 4.875 13.375 5.25 7.4375C5.3125 6.625 5.75 6 6.5 5.6875L19.25 0.3125C19.5625 0.125 19.875 0 20.25 0ZM20.875 22.75L27 16.5C28.75 14.6875 28.625 11.6875 26.625 10C24.9375 8.5 22.4375 8.8125 20.875 10.4375L20.25 11.0625L19.5625 10.4375C18.0625 8.8125 15.5 8.5 13.8125 10C11.8125 11.6875 11.6875 14.6875 13.4375 16.5L19.5 22.75C19.9375 23.125 20.5 23.125 20.875 22.75Z" fill="#00A3FF"/>
</svg>
