<svg width="32" height="32" viewBox="0 0 32 32" fill="none" xmlns="http://www.w3.org/2000/svg">
<path d="M16.5 24C13.625 24 11 22.5 9.5625 20C8.125 17.5312 8.125 14.5 9.5625 12C11 9.53125 13.625 8 16.5 8C19.3438 8 21.9688 9.53125 23.4062 12C24.8438 14.5 24.8438 17.5312 23.4062 20C21.9688 22.5 19.3438 24 16.5 24ZM15.25 18.5C14.8125 18.5 14.5 18.8438 14.5 19.25C14.5 19.6875 14.8125 20 15.25 20H17.75C18.1562 20 18.5 19.6875 18.5 19.25C18.5 18.8438 18.1562 18.5 17.75 18.5H17.5V15.75C17.5 15.3438 17.1562 15 16.75 15H15.25C14.8125 15 14.5 15.3438 14.5 15.75C14.5 16.1875 14.8125 16.5 15.25 16.5H16V18.5H15.25ZM16.5 12C15.9375 12 15.5 12.4688 15.5 13C15.5 13.5625 15.9375 14 16.5 14C17.0312 14 17.5 13.5625 17.5 13C17.5 12.4688 17.0312 12 16.5 12Z" fill="white" fill-opacity="0.2"/>
</svg>
