<svg width="51" height="77" viewBox="0 0 51 77" fill="none" xmlns="http://www.w3.org/2000/svg">
<path d="M46.9234 40.2829C44.418 35.4311 40.3197 31.5891 35.3164 29.4017V23.9722L38.0251 21.2636V17.166H13.4406V21.2636L16.1906 24.0136V29.4316C11.1943 31.6346 7.10796 35.4894 4.61772 40.349C2.12749 45.2085 1.38497 50.7769 2.51482 56.1192C3.64467 61.4615 6.57809 66.2524 10.8226 69.6876C15.0671 73.1229 20.3643 74.9932 25.8247 74.9847C31.2852 74.9762 36.5765 73.0893 40.8102 69.6408C45.044 66.1923 47.9624 61.3922 49.0756 56.0465C50.1887 50.7007 49.4288 45.1347 46.9234 40.2829Z" fill="#C6F5F7" stroke="black" stroke-width="2.75"/>
<path opacity="0.1" d="M14.7196 21.2222H30.9446V33.7347C34.955 36.0035 42.6287 41.7008 42.9759 49.4097C43.2055 54.5084 40.0884 60.616 38.5759 61.716L44.0759 65.016H45.1504C47.0537 62.3491 48.3992 59.2988 49.0764 56.0465C50.1896 50.7007 49.4296 45.1347 46.9242 40.2829C44.4188 35.4311 40.3205 31.5891 35.3173 29.4017V23.9722L38.0259 21.2636V17.166H13.7461L14.7196 21.2222Z" fill="black"/>
<path d="M13.8254 71.6159C10.7454 70.3509 8.05039 66.643 7.08789 64.9472C7.85789 63.2972 11.4879 62.6555 13.2066 62.5409C13.4129 61.9222 14.3066 60.5059 16.2317 59.7909C18.6379 58.8972 19.1192 60.6847 21.0442 60.6847C22.5842 60.6847 23.2442 56.5597 23.3817 54.4972H28.2629C28.2629 57.0272 29.5004 59.6763 30.1192 60.6847C30.1421 60.4784 30.8204 60.0109 33.3504 59.7909C36.5129 59.5159 38.9192 62.5409 40.8442 62.5409C42.3842 62.5409 43.915 64.1451 44.4879 64.9472C44.3275 65.3367 43.4429 66.7622 41.1879 69.3472C38.3692 72.5784 30.3254 74.3659 26.7504 74.9159C23.1926 75.4633 17.7283 73.2189 13.8811 71.6388L13.8254 71.6159Z" fill="#EB7F00" stroke="black" stroke-width="0.1375"/>
<path opacity="0.1" d="M7.22656 64.7409C23.5891 73.3346 34.9558 67.2846 38.7141 63.2284C40.4558 63.6409 43.8841 64.0809 44.2141 66.1159C40.5704 72.3034 28.0578 74.9159 22.5578 74.7096C17.0578 74.5034 9.22031 67.9721 7.22656 64.7409Z" fill="black"/>
<path d="M7.01953 64.9472C7.77578 63.2284 10.2508 61.9222 13.1383 62.7472C15.8195 57.5222 20.082 59.8597 21.3883 61.1659C23.3683 60.0659 23.5883 56.2617 23.4508 54.4972H28.0213C27.8838 56.2617 28.1038 60.0659 30.0838 61.1659C31.3901 59.8597 35.6526 57.5222 38.3339 62.7472C41.1883 62.1284 43.6633 63.5722 44.4196 65.2909" stroke="#00A3FF" stroke-width="2.75"/>
<path d="M7.01953 64.9472C7.77578 63.2284 10.2508 61.9222 13.1383 62.7472C15.8195 57.5222 20.082 59.8597 21.3883 61.1659C23.3683 60.0659 23.5883 56.2617 23.4508 54.4972H28.0213C27.8838 56.2617 28.1038 60.0659 30.0838 61.1659C31.3901 59.8597 35.6526 57.5222 38.3339 62.7472C41.1883 62.1284 43.6633 63.5722 44.4196 65.2909" stroke="black" stroke-opacity="0.8" stroke-width="2.75"/>
<path d="M46.9234 40.2142C44.418 35.3624 40.3197 31.5203 35.3164 29.333V23.9035L38.0251 21.1949V17.0973H13.4406V21.1949L16.1906 23.9449V29.3628C11.1943 31.5658 7.10796 35.4207 4.61772 40.2803C2.12749 45.1398 1.38497 50.7082 2.51482 56.0505C3.64467 61.3928 6.57809 66.1837 10.8226 69.6189C15.0671 73.0541 20.3643 74.9245 25.8247 74.916C31.2852 74.9074 36.5765 73.0205 40.8102 69.5721C45.044 66.1236 47.9624 61.3235 49.0756 55.9777C50.1887 50.6319 49.4288 45.0659 46.9234 40.2142Z" stroke="#00A3FF" stroke-width="2.75"/>
<path d="M46.9234 40.2142C44.418 35.3624 40.3197 31.5203 35.3164 29.333V23.9035L38.0251 21.1949V17.0973H13.4406V21.1949L16.1906 23.9449V29.3628C11.1943 31.5658 7.10796 35.4207 4.61772 40.2803C2.12749 45.1398 1.38497 50.7082 2.51482 56.0505C3.64467 61.3928 6.57809 66.1837 10.8226 69.6189C15.0671 73.0541 20.3643 74.9245 25.8247 74.916C31.2852 74.9074 36.5765 73.0205 40.8102 69.5721C45.044 66.1236 47.9624 61.3235 49.0756 55.9777C50.1887 50.6319 49.4288 45.0659 46.9234 40.2142Z" stroke="black" stroke-opacity="0.8" stroke-width="2.75"/>
<path d="M18.061 39.4783C20.0743 33.4351 24.1428 30.5646 25.9254 29.8847C27.708 30.5646 31.7765 33.4351 33.7898 39.4783C34.8887 42.777 35.2978 46.0325 35.0826 48.6535C36.4531 49.3181 40.3629 49.616 40.3629 54.3597H31.2732H20.5776H11.2129C11.2129 50.2347 14.9164 48.8368 16.7682 48.6535C16.553 46.0325 16.9621 42.777 18.061 39.4783Z" fill="#00A3FF"/>
<path d="M20.5776 54.3597H31.2732M20.5776 54.3597C18.3626 54.3597 17.0459 52.0345 16.7682 48.6535M20.5776 54.3597C19.3078 54.3597 15.6572 54.3597 11.2129 54.3597C11.2129 50.2347 14.9164 48.8368 16.7682 48.6535M31.2732 54.3597C33.4883 54.3597 34.8049 52.0345 35.0826 48.6535M31.2732 54.3597C32.676 54.3597 37.3929 54.3597 40.3629 54.3597C40.3629 49.616 36.4531 49.3181 35.0826 48.6535M35.0826 48.6535C35.2978 46.0325 34.8887 42.777 33.7898 39.4783C31.7765 33.4351 27.708 30.5646 25.9254 29.8847C24.1428 30.5646 20.0743 33.4351 18.061 39.4783C16.9621 42.777 16.553 46.0325 16.7682 48.6535" stroke="#00A3FF" stroke-width="2.75"/>
<path d="M20.5776 54.3597H31.2732M20.5776 54.3597C18.3626 54.3597 17.0459 52.0345 16.7682 48.6535M20.5776 54.3597C19.3078 54.3597 15.6572 54.3597 11.2129 54.3597C11.2129 50.2347 14.9164 48.8368 16.7682 48.6535M31.2732 54.3597C33.4883 54.3597 34.8049 52.0345 35.0826 48.6535M31.2732 54.3597C32.676 54.3597 37.3929 54.3597 40.3629 54.3597C40.3629 49.616 36.4531 49.3181 35.0826 48.6535M35.0826 48.6535C35.2978 46.0325 34.8887 42.777 33.7898 39.4783C31.7765 33.4351 27.708 30.5646 25.9254 29.8847C24.1428 30.5646 20.0743 33.4351 18.061 39.4783C16.9621 42.777 16.553 46.0325 16.7682 48.6535" stroke="black" stroke-opacity="0.8" stroke-width="2.75"/>
<path opacity="0.1" d="M28.1246 54.3596L31.2724 54.3596H40.3622C40.3622 54.2788 40.361 54.1992 40.3588 54.1209C39.8462 52.5157 38.3838 49.6052 36.0309 49.1346C35.682 49.0649 35.3992 48.9123 35.1727 48.6954C35.1413 48.6815 35.111 48.6675 35.0818 48.6534C35.0831 48.6376 35.0844 48.6217 35.0857 48.6058C34.0999 47.5175 34.3095 45.0851 34.7422 43.1637C34.5204 41.9626 34.2039 40.7235 33.789 39.4782C33.5751 38.836 33.3379 38.2296 33.0827 37.6579C31.2526 34.5542 28.6928 31.3188 26.1309 30.9846C28.3079 34.8805 31.7546 45.0096 28.1246 54.3596Z" fill="black"/>
<path d="M20.5776 54.3597H31.2732M20.5776 54.3597C18.3626 54.3597 17.0459 52.0345 16.7682 48.6535M20.5776 54.3597C19.3078 54.3597 15.6572 54.3597 11.2129 54.3597C11.2129 50.2347 14.9164 48.8368 16.7682 48.6535M31.2732 54.3597C33.4883 54.3597 34.8049 52.0345 35.0826 48.6535M31.2732 54.3597C32.676 54.3597 37.3929 54.3597 40.3629 54.3597C40.3629 49.616 36.4531 49.3181 35.0826 48.6535M35.0826 48.6535C35.2978 46.0325 34.8887 42.777 33.7898 39.4783C31.7765 33.4351 27.708 30.5646 25.9254 29.8847C24.1428 30.5646 20.0743 33.4351 18.061 39.4783C16.9621 42.777 16.553 46.0325 16.7682 48.6535" stroke="#00A3FF" stroke-width="2.75"/>
<path d="M20.5776 54.3597H31.2732M20.5776 54.3597C18.3626 54.3597 17.0459 52.0345 16.7682 48.6535M20.5776 54.3597C19.3078 54.3597 15.6572 54.3597 11.2129 54.3597C11.2129 50.2347 14.9164 48.8368 16.7682 48.6535M31.2732 54.3597C33.4883 54.3597 34.8049 52.0345 35.0826 48.6535M31.2732 54.3597C32.676 54.3597 37.3929 54.3597 40.3629 54.3597C40.3629 49.616 36.4531 49.3181 35.0826 48.6535M35.0826 48.6535C35.2978 46.0325 34.8887 42.777 33.7898 39.4783C31.7765 33.4351 27.708 30.5646 25.9254 29.8847C24.1428 30.5646 20.0743 33.4351 18.061 39.4783C16.9621 42.777 16.553 46.0325 16.7682 48.6535" stroke="black" stroke-opacity="0.8" stroke-width="2.75"/>
<path d="M25.9258 47.4847C28.204 47.4847 30.0508 45.6379 30.0508 43.3597C30.0508 41.0815 28.204 39.2347 25.9258 39.2347C23.6476 39.2347 21.8008 41.0815 21.8008 43.3597C21.8008 45.6379 23.6476 47.4847 25.9258 47.4847Z" fill="#C6F5F7"/>
<path d="M25.9258 47.4847C28.204 47.4847 30.0508 45.6379 30.0508 43.3597C30.0508 41.0815 28.204 39.2347 25.9258 39.2347C23.6476 39.2347 21.8008 41.0815 21.8008 43.3597C21.8008 45.6379 23.6476 47.4847 25.9258 47.4847Z" stroke="#00A3FF" stroke-width="2.75"/>
<path d="M25.9258 47.4847C28.204 47.4847 30.0508 45.6379 30.0508 43.3597C30.0508 41.0815 28.204 39.2347 25.9258 39.2347C23.6476 39.2347 21.8008 41.0815 21.8008 43.3597C21.8008 45.6379 23.6476 47.4847 25.9258 47.4847Z" stroke="black" stroke-opacity="0.8" stroke-width="2.75"/>
<path d="M28.7445 26.7222C30.3013 26.7222 31.5633 25.4602 31.5633 23.9034C31.5633 22.3467 30.3013 21.0847 28.7445 21.0847C27.1878 21.0847 25.9258 22.3467 25.9258 23.9034C25.9258 25.4602 27.1878 26.7222 28.7445 26.7222Z" fill="#C6F5F7"/>
<path d="M28.7445 26.7222C30.3013 26.7222 31.5633 25.4602 31.5633 23.9034C31.5633 22.3467 30.3013 21.0847 28.7445 21.0847C27.1878 21.0847 25.9258 22.3467 25.9258 23.9034C25.9258 25.4602 27.1878 26.7222 28.7445 26.7222Z" fill="black" fill-opacity="0.12"/>
<path d="M28.7445 26.7222C30.3013 26.7222 31.5633 25.4602 31.5633 23.9034C31.5633 22.3467 30.3013 21.0847 28.7445 21.0847C27.1878 21.0847 25.9258 22.3467 25.9258 23.9034C25.9258 25.4602 27.1878 26.7222 28.7445 26.7222Z" stroke="#00A3FF" stroke-width="2.75"/>
<path d="M28.7445 26.7222C30.3013 26.7222 31.5633 25.4602 31.5633 23.9034C31.5633 22.3467 30.3013 21.0847 28.7445 21.0847C27.1878 21.0847 25.9258 22.3467 25.9258 23.9034C25.9258 25.4602 27.1878 26.7222 28.7445 26.7222Z" stroke="black" stroke-opacity="0.8" stroke-width="2.75"/>
<path d="M28.1945 24.7972C28.916 24.7972 29.5008 24.2124 29.5008 23.4909C29.5008 23.0881 29.3184 22.7279 29.0318 22.4883C28.939 22.4695 28.8429 22.4597 28.7445 22.4597C27.9472 22.4597 27.3008 23.1061 27.3008 23.9034C27.3008 24.1462 27.3607 24.3749 27.4665 24.5756C27.6745 24.7155 27.925 24.7972 28.1945 24.7972Z" fill="#C6F5F7"/>
<path d="M21.0438 20.9472C23.5877 20.9472 25.65 18.8849 25.65 16.341C25.65 13.797 23.5877 11.7347 21.0438 11.7347C18.4998 11.7347 16.4375 13.797 16.4375 16.341C16.4375 18.8849 18.4998 20.9472 21.0438 20.9472Z" fill="#C6F5F7"/>
<path d="M21.0438 20.9472C23.5877 20.9472 25.65 18.8849 25.65 16.341C25.65 13.797 23.5877 11.7347 21.0438 11.7347C18.4998 11.7347 16.4375 13.797 16.4375 16.341C16.4375 18.8849 18.4998 20.9472 21.0438 20.9472Z" fill="black" fill-opacity="0.12"/>
<path d="M21.0438 20.9472C23.5877 20.9472 25.65 18.8849 25.65 16.341C25.65 13.797 23.5877 11.7347 21.0438 11.7347C18.4998 11.7347 16.4375 13.797 16.4375 16.341C16.4375 18.8849 18.4998 20.9472 21.0438 20.9472Z" stroke="#00A3FF" stroke-width="2.75"/>
<path d="M21.0438 20.9472C23.5877 20.9472 25.65 18.8849 25.65 16.341C25.65 13.797 23.5877 11.7347 21.0438 11.7347C18.4998 11.7347 16.4375 13.797 16.4375 16.341C16.4375 18.8849 18.4998 20.9472 21.0438 20.9472Z" stroke="black" stroke-opacity="0.8" stroke-width="2.75"/>
<path d="M20.0125 17.9222C21.4553 17.9222 22.625 16.7526 22.625 15.3097C22.625 14.4036 22.1637 13.6053 21.4632 13.1367C21.3259 13.1189 21.1859 13.1097 21.0438 13.1097C19.2592 13.1097 17.8125 14.5564 17.8125 16.341C17.8125 16.4831 17.8217 16.6231 17.8395 16.7604C18.3081 17.4609 19.1064 17.9222 20.0125 17.9222Z" fill="#C6F5F7"/>
<path d="M31.0805 12.8347C34.156 12.8347 36.6492 10.3415 36.6492 7.26592C36.6492 4.19039 34.156 1.69717 31.0805 1.69717C28.0049 1.69717 25.5117 4.19039 25.5117 7.26592C25.5117 10.3415 28.0049 12.8347 31.0805 12.8347Z" fill="#C6F5F7"/>
<path d="M31.0805 12.8347C34.156 12.8347 36.6492 10.3415 36.6492 7.26592C36.6492 4.19039 34.156 1.69717 31.0805 1.69717C28.0049 1.69717 25.5117 4.19039 25.5117 7.26592C25.5117 10.3415 28.0049 12.8347 31.0805 12.8347Z" fill="black" fill-opacity="0.12"/>
<path d="M31.0805 12.8347C34.156 12.8347 36.6492 10.3415 36.6492 7.26592C36.6492 4.19039 34.156 1.69717 31.0805 1.69717C28.0049 1.69717 25.5117 4.19039 25.5117 7.26592C25.5117 10.3415 28.0049 12.8347 31.0805 12.8347Z" stroke="#00A3FF" stroke-width="2.75"/>
<path d="M31.0805 12.8347C34.156 12.8347 36.6492 10.3415 36.6492 7.26592C36.6492 4.19039 34.156 1.69717 31.0805 1.69717C28.0049 1.69717 25.5117 4.19039 25.5117 7.26592C25.5117 10.3415 28.0049 12.8347 31.0805 12.8347Z" stroke="black" stroke-opacity="0.8" stroke-width="2.75"/>
<path d="M30.118 9.8097C31.9785 9.8097 33.4867 8.30146 33.4867 6.44095C33.4867 4.73466 32.2181 3.32466 30.5727 3.10263C28.496 3.35328 26.8867 5.12168 26.8867 7.26595C26.8867 7.31224 26.8875 7.35836 26.889 7.40429C27.3034 8.79539 28.5922 9.8097 30.118 9.8097Z" fill="#C6F5F7"/>
</svg>
