<svg width="20" height="16" viewBox="0 0 20 16" fill="none" xmlns="http://www.w3.org/2000/svg">
<path d="M16.6875 8.71875L11.6875 13.7188C11.5 13.9062 11.25 14 11 14C10.7188 14 10.4688 13.9062 10.2812 13.7188C9.875 13.3438 9.875 12.6875 10.2812 12.3125L13.5625 9H4C3.4375 9 3 8.5625 3 8C3 7.46875 3.4375 7 4 7H13.5625L10.2812 3.71875C9.875 3.34375 9.875 2.6875 10.2812 2.3125C10.6562 1.90625 11.3125 1.90625 11.6875 2.3125L16.6875 7.3125C17.0938 7.6875 17.0938 8.34375 16.6875 8.71875Z" fill="#00A3FF"/>
</svg>
