<svg width="41" height="32" viewBox="0 0 41 32" fill="none" xmlns="http://www.w3.org/2000/svg">
<path d="M36.25 16C36.25 16.0625 36.1875 16.125 36.1875 16.1875C36.1875 18.5 34.125 20 31.8125 20H25.75C24.0625 20 22.75 21.375 22.75 23C22.75 23.25 22.75 23.4375 22.8125 23.625C22.9375 24.3125 23.1875 24.875 23.4375 25.5C23.8125 26.375 24.25 27.25 24.25 28.125C24.25 30.125 22.875 31.9375 20.875 32C20.6875 32 20.4375 32 20.25 32C11.375 32 4.25 24.875 4.25 16C4.25 7.1875 11.375 0 20.25 0C29.0625 0 36.25 7.1875 36.25 16ZM10.25 16C9.125 16 8.25 16.9375 8.25 18C8.25 19.125 9.125 20 10.25 20C11.3125 20 12.25 19.125 12.25 18C12.25 16.9375 11.3125 16 10.25 16ZM12.25 12C13.3125 12 14.25 11.125 14.25 10C14.25 8.9375 13.3125 8 12.25 8C11.125 8 10.25 8.9375 10.25 10C10.25 11.125 11.125 12 12.25 12ZM20.25 4C19.125 4 18.25 4.9375 18.25 6C18.25 7.125 19.125 8 20.25 8C21.3125 8 22.25 7.125 22.25 6C22.25 4.9375 21.3125 4 20.25 4ZM28.25 12C29.3125 12 30.25 11.125 30.25 10C30.25 8.9375 29.3125 8 28.25 8C27.125 8 26.25 8.9375 26.25 10C26.25 11.125 27.125 12 28.25 12Z" fill="#00A3FF"/>
</svg>
