<svg width="226" height="70" viewBox="0 0 226 70" fill="none" xmlns="http://www.w3.org/2000/svg">
<path d="M3.4867 36V30.6851H16.1412C16.7599 30.6851 17.3223 30.5304 17.8285 30.2211C18.3346 29.9118 18.7424 29.504 19.0517 28.9978C19.3611 28.4635 19.5157 27.8871 19.5157 27.2684C19.5157 26.6216 19.3611 26.0451 19.0517 25.539C18.7424 25.0047 18.3346 24.5828 17.8285 24.2735C17.3223 23.9642 16.7599 23.8095 16.1412 23.8095H11.2059C9.5468 23.8095 8.04232 23.4721 6.69251 22.7972C5.3427 22.1222 4.26003 21.1521 3.44452 19.8866C2.65713 18.593 2.26344 17.0464 2.26344 15.2466C2.26344 13.475 2.64307 11.9424 3.40234 10.6488C4.16161 9.32715 5.18803 8.30073 6.4816 7.56958C7.77517 6.83843 9.20934 6.47286 10.7841 6.47286H23.6073V11.7877H11.3747C10.8122 11.7877 10.292 11.9424 9.81395 12.2517C9.33589 12.533 8.95626 12.9126 8.67504 13.3906C8.42195 13.8687 8.29541 14.403 8.29541 14.9935C8.29541 15.5841 8.42195 16.1184 8.67504 16.5965C8.95626 17.0745 9.33589 17.4541 9.81395 17.7354C10.292 18.0166 10.8122 18.1572 11.3747 18.1572H16.4786C18.3065 18.1572 19.8954 18.5087 21.2452 19.2117C22.595 19.9147 23.6355 20.899 24.3666 22.1644C25.1259 23.4299 25.5055 24.9062 25.5055 26.5935C25.5055 28.5901 25.1118 30.2914 24.3244 31.6975C23.5652 33.1035 22.5247 34.1721 21.203 34.9033C19.9094 35.6344 18.4752 36 16.9005 36H3.4867ZM29.9336 36V6.47286H35.9656V18.7477H41.5757C42.5318 18.7477 43.4036 18.5649 44.191 18.1994C44.9784 17.8057 45.597 17.2432 46.047 16.5121C46.525 15.7809 46.7641 14.9092 46.7641 13.8968V6.47286H52.796V13.8968C52.796 15.8653 52.332 17.6088 51.404 19.1273C50.476 20.6178 49.2528 21.7989 47.7342 22.6706L51.2775 30.1368C51.3619 30.3336 51.4884 30.4742 51.6571 30.5586C51.854 30.6429 52.0649 30.6851 52.2899 30.6851H55.1582V36H51.3619C49.9558 36 48.8028 35.7188 47.903 35.1564C47.0031 34.5658 46.3141 33.7784 45.8361 32.7942L41.6601 24.0626C41.3789 24.0626 41.1117 24.0626 40.8586 24.0626C40.6055 24.0626 40.3384 24.0626 40.0572 24.0626H35.9656V36H29.9336ZM66.7245 36V27.8589C64.8967 27.4653 63.2797 26.7482 61.8737 25.7077C60.4957 24.6672 59.4131 23.3315 58.6257 21.7004C57.8664 20.0413 57.4868 18.1431 57.4868 16.0059V6.47286H63.5187V16.3855C63.5187 17.5666 63.7718 18.6493 64.278 19.6335C64.7842 20.5896 65.5013 21.363 66.4293 21.9535C67.3854 22.5441 68.4962 22.8393 69.7616 22.8393C71.0552 22.8393 72.166 22.5441 73.094 21.9535C74.022 21.363 74.739 20.5896 75.2452 19.6335C75.7514 18.6493 76.0045 17.5666 76.0045 16.3855V6.47286H82.0365V16.0059C82.0365 18.1431 81.6428 20.0413 80.8554 21.7004C80.0961 23.3315 79.0135 24.6813 77.6074 25.7499C76.2295 26.7903 74.6125 27.4934 72.7565 27.8589V36H66.7245ZM87.6852 36V30.6851H100.34C100.958 30.6851 101.521 30.5304 102.027 30.2211C102.533 29.9118 102.941 29.504 103.25 28.9978C103.56 28.4635 103.714 27.8871 103.714 27.2684C103.714 26.6216 103.56 26.0451 103.25 25.539C102.941 25.0047 102.533 24.5828 102.027 24.2735C101.521 23.9642 100.958 23.8095 100.34 23.8095H95.4044C93.7453 23.8095 92.2408 23.4721 90.891 22.7972C89.5412 22.1222 88.4585 21.1521 87.643 19.8866C86.8556 18.593 86.4619 17.0464 86.4619 15.2466C86.4619 13.475 86.8416 11.9424 87.6008 10.6488C88.3601 9.32715 89.3865 8.30073 90.6801 7.56958C91.9736 6.83843 93.4078 6.47286 94.9826 6.47286H107.806V11.7877H95.5731C95.0107 11.7877 94.4905 11.9424 94.0124 12.2517C93.5344 12.533 93.1547 12.9126 92.8735 13.3906C92.6204 13.8687 92.4939 14.403 92.4939 14.9935C92.4939 15.5841 92.6204 16.1184 92.8735 16.5965C93.1547 17.0745 93.5344 17.4541 94.0124 17.7354C94.4905 18.0166 95.0107 18.1572 95.5731 18.1572H100.677C102.505 18.1572 104.094 18.5087 105.444 19.2117C106.793 19.9147 107.834 20.899 108.565 22.1644C109.324 23.4299 109.704 24.9062 109.704 26.5935C109.704 28.5901 109.31 30.2914 108.523 31.6975C107.764 33.1035 106.723 34.1721 105.401 34.9033C104.108 35.6344 102.674 36 101.099 36H87.6852ZM114.132 36V6.47286H120.164V18.3259H133.072V6.47286H139.104V36H133.072V23.6408H120.164V36H114.132ZM142.074 36L151.692 9.76303C152.17 8.49758 152.915 7.55552 153.927 6.93686C154.968 6.29007 156.135 5.96668 157.428 5.96668C158.722 5.96668 159.889 6.27601 160.929 6.89468C161.97 7.48522 162.715 8.42728 163.165 9.72085L172.825 36H166.202L164.219 30.0524H150.468L148.401 36H142.074ZM152.282 24.7375H162.448L158.187 11.7877C158.131 11.5909 158.033 11.4503 157.892 11.3659C157.78 11.2816 157.639 11.2394 157.47 11.2394C157.302 11.2394 157.161 11.2956 157.049 11.4081C156.936 11.4925 156.852 11.619 156.795 11.7877L152.282 24.7375ZM175.139 36V6.47286H188.342C190.282 6.47286 192.04 6.90874 193.614 7.78049C195.217 8.62412 196.483 9.80521 197.411 11.3237C198.367 12.8423 198.845 14.6139 198.845 16.6386C198.845 18.6071 198.381 20.3506 197.453 21.8692C196.525 23.3596 195.302 24.5407 193.783 25.4124L196.483 30.1368C196.595 30.3055 196.736 30.4461 196.905 30.5586C197.073 30.6429 197.27 30.6851 197.495 30.6851H200.364V36H196.567C195.386 36 194.303 35.7047 193.319 35.1142C192.363 34.5236 191.604 33.7503 191.041 32.7942L187.709 26.8044C187.456 26.8044 187.189 26.8044 186.908 26.8044C186.654 26.8044 186.401 26.8044 186.148 26.8044H181.171V36H175.139ZM181.171 21.4895H187.625C188.581 21.4895 189.453 21.3067 190.24 20.9412C191.027 20.5475 191.646 19.985 192.096 19.2539C192.574 18.5227 192.813 17.651 192.813 16.6386C192.813 15.6263 192.574 14.7545 192.096 14.0234C191.618 13.2922 190.985 12.7439 190.198 12.3783C189.438 11.9846 188.581 11.7877 187.625 11.7877H181.171V21.4895ZM211.483 36C209.852 36 208.362 35.6063 207.012 34.8189C205.69 34.0315 204.636 32.977 203.848 31.6553C203.061 30.3055 202.667 28.8151 202.667 27.184C202.667 26.003 202.92 24.8922 203.427 23.8517C203.933 22.8112 204.622 21.8973 205.494 21.1099C204.622 20.3225 203.933 19.4086 203.427 18.3681C202.92 17.3276 202.667 16.2309 202.667 15.0779C202.667 13.475 203.047 12.0268 203.806 10.7332C204.594 9.43963 205.634 8.41322 206.928 7.65395C208.249 6.86656 209.698 6.47286 211.272 6.47286H223.421V11.7877H211.947C211.357 11.7877 210.808 11.9424 210.302 12.2517C209.824 12.533 209.43 12.9266 209.121 13.4328C208.84 13.9109 208.699 14.4592 208.699 15.0779C208.699 15.6685 208.84 16.2168 209.121 16.723C209.43 17.2011 209.824 17.5947 210.302 17.9041C210.808 18.1853 211.357 18.3259 211.947 18.3259H221.987V23.6408H212.2C211.554 23.6408 210.963 23.8095 210.429 24.147C209.894 24.4563 209.473 24.8781 209.163 25.4124C208.854 25.9467 208.699 26.5373 208.699 27.184C208.699 27.8308 208.854 28.4214 209.163 28.9557C209.473 29.49 209.894 29.9118 210.429 30.2211C210.963 30.5304 211.554 30.6851 212.2 30.6851H223.421V36H211.483Z" fill="white"/>
<path d="M7.58887 65C6.49917 65 5.5413 64.7539 4.71524 64.2618C3.88919 63.7521 3.24767 63.0843 2.79071 62.2582C2.33374 61.4146 2.10526 60.4918 2.10526 59.49V46.5455H5.87524V59.9382C5.87524 60.4127 6.04221 60.8258 6.37615 61.1773C6.71008 61.5112 7.11432 61.6782 7.58887 61.6782H12.4661V65H7.58887ZM9.94758 65L15.9585 48.6019C16.2572 47.811 16.723 47.2222 17.3557 46.8355C18.006 46.4313 18.7354 46.2292 19.5439 46.2292C20.3524 46.2292 21.0818 46.4225 21.7321 46.8092C22.3824 47.1783 22.8481 47.767 23.1293 48.5755L29.1666 65H25.0275L23.7884 61.2827H15.1939L13.9021 65H9.94758ZM16.3275 57.9609H22.6812L20.0184 49.8673C19.9833 49.7443 19.9218 49.6564 19.8339 49.6037C19.7636 49.551 19.6757 49.5246 19.5703 49.5246C19.4648 49.5246 19.3769 49.5598 19.3066 49.6301C19.2363 49.6828 19.1836 49.7619 19.1484 49.8673L16.3275 57.9609ZM30.6131 65V46.5455H40.9739C41.8527 46.5455 42.6436 46.7477 43.3466 47.1519C44.0673 47.5386 44.6385 48.0834 45.0603 48.7864C45.4997 49.4895 45.7194 50.3243 45.7194 51.291C45.7194 51.9061 45.5963 52.4949 45.3503 53.0573C45.1042 53.6022 44.7703 54.0767 44.3485 54.481C43.9266 54.8852 43.4345 55.2016 42.8721 55.43C43.5224 55.641 44.0936 55.9837 44.5857 56.4582C45.0954 56.9152 45.4909 57.46 45.7721 58.0928C46.0709 58.7079 46.2203 59.3758 46.2203 60.0964C46.2203 61.0806 45.9918 61.9418 45.5348 62.68C45.0954 63.4182 44.5066 63.9894 43.7685 64.3936C43.0303 64.7979 42.2042 65 41.2903 65H30.6131ZM34.3831 61.6782H40.2094C40.6312 61.6782 41.0091 61.5815 41.343 61.3882C41.677 61.1773 41.9406 60.9049 42.1339 60.5709C42.3448 60.2194 42.4503 59.8415 42.4503 59.4373C42.4503 59.0155 42.3448 58.6376 42.1339 58.3037C41.9406 57.9697 41.677 57.7061 41.343 57.5128C41.0091 57.3019 40.6312 57.1964 40.2094 57.1964H34.3831V61.6782ZM34.3831 54.0328H39.8667C40.2533 54.0328 40.6048 53.9449 40.9212 53.7691C41.2376 53.5758 41.4836 53.321 41.6594 53.0046C41.8527 52.6882 41.9494 52.3367 41.9494 51.9501C41.9494 51.5634 41.8527 51.2119 41.6594 50.8955C41.4836 50.5792 41.2376 50.3331 40.9212 50.1573C40.6048 49.964 40.2533 49.8673 39.8667 49.8673H34.3831V54.0328ZM49.0978 65V61.6782H57.0069C57.3935 61.6782 57.745 61.5815 58.0614 61.3882C58.3778 61.1949 58.6326 60.94 58.8259 60.6237C59.0193 60.2897 59.1159 59.9294 59.1159 59.5428C59.1159 59.1385 59.0193 58.7782 58.8259 58.4618C58.6326 58.1279 58.3778 57.8643 58.0614 57.6709C57.745 57.4776 57.3935 57.3809 57.0069 57.3809H53.9223C52.8854 57.3809 51.9451 57.17 51.1014 56.7482C50.2578 56.3264 49.5811 55.72 49.0714 54.9291C48.5793 54.1207 48.3333 53.154 48.3333 52.0292C48.3333 50.9219 48.5705 49.964 49.0451 49.1555C49.5196 48.3295 50.1611 47.688 50.9696 47.231C51.7781 46.774 52.6745 46.5455 53.6587 46.5455H61.6732V49.8673H54.0278C53.6763 49.8673 53.3511 49.964 53.0523 50.1573C52.7535 50.3331 52.5163 50.5704 52.3405 50.8692C52.1823 51.1679 52.1032 51.5019 52.1032 51.871C52.1032 52.2401 52.1823 52.574 52.3405 52.8728C52.5163 53.1716 52.7535 53.4088 53.0523 53.5846C53.3511 53.7604 53.6763 53.8482 54.0278 53.8482H57.2178C58.3602 53.8482 59.3532 54.0679 60.1968 54.5073C61.0405 54.9467 61.6908 55.5619 62.1477 56.3528C62.6223 57.1437 62.8596 58.0664 62.8596 59.1209C62.8596 60.3688 62.6135 61.4321 62.1214 62.3109C61.6468 63.1897 60.9965 63.8576 60.1705 64.3145C59.362 64.7715 58.4656 65 57.4814 65H49.0978Z" fill="white" fill-opacity="0.72"/>
</svg>
