<svg width="41" height="32" viewBox="0 0 41 32" fill="none" xmlns="http://www.w3.org/2000/svg">
<path d="M28.75 8C28.75 12.4375 25.125 16 20.75 16C16.3125 16 12.75 12.4375 12.75 8C12.75 3.625 16.3125 0 20.75 0C25.125 0 28.75 3.625 28.75 8ZM19.8125 22.5L17.75 19H23.75L21.625 22.5L23.75 30.25L26.1875 20.125C31 20.875 34.75 25.0625 34.75 30.125C34.75 31.1875 33.875 32 32.8125 32H8.625C7.5625 32 6.75 31.1875 6.75 30.125C6.75 25.0625 10.4375 20.875 15.25 20.125L17.6875 30.25L19.8125 22.5Z" fill="#00A3FF"/>
</svg>
